#!OML:ASF Y:\EmotionMaleHayes\Project 1\Capture day 1\Session 1\Male1.ASF
:FULLY-SPECIFIED
:DEGREES
173
root -13.5337 15.2596 -0.161421 -45.2462 81.8582 -57.2788
lowerback 22.5237 2.09947 4.20837
upperback 5.57617 4.46815 4.50339
thorax -6.49599 2.29648 1.24082
lowerneck -25.1465 4.66471 6.86722
upperneck 9.41802 5.52929 -8.8744
head 7.3791 2.09205 -3.3208
rclavicle 1.43125e-014 1.03368e-014
rhumerus -27.7414 20.2855 -87.6481
rradius 88.8466
rwrist -17.5106
rhand -29.4335 -25.0449
rfingers 7.12502
rthumb -2.7704 -55.0066
lclavicle 1.43125e-014 1.03368e-014
lhumerus -66.8239 -15.1906 101.873
lradius 81.7403
lwrist 23.0842
lhand -35.5671 -29.2519
lfingers 7.12502
lthumb -8.69208 0.549136
rfemur -13.4559 5.76517 32.768
rtibia 47.8726
rfoot -37.9426 -8.16389
rtoes -9.79016
lfemur -34.2341 13.5544 -11.8805
ltibia 75.3351
lfoot 170.952 -8.55783
ltoes -13.7628
174
root -13.2292 15.2821 -0.173179 -44.9834 81.6535 -56.9718
lowerback 22.3174 2.20677 4.6761
upperback 5.43012 4.67096 4.27127
thorax -6.49042 2.37993 0.67763
lowerneck -25.1748 4.47997 6.83505
upperneck 9.77598 5.27079 -8.67174
head 7.47303 1.97823 -3.2859
rclavicle 1.74931e-014 1.35174e-014
rhumerus -25.4381 19.6271 -88.0582
rradius 90.2865
rwrist -16.7622
rhand -28.821 -23.9347
rfingers 7.12502
rthumb -2.17879 -53.9033
lclavicle 1.74931e-014 1.35174e-014
lhumerus -70.0976 -16.0755 101.782
lradius 83.006
lwrist 24.1042
lhand -35.6635 -28.9598
lfingers 7.12502
lthumb -8.78505 0.837326
rfemur -11.1437 5.86416 32.859
rtibia 45.962
rfoot -37.875 -8.2821
rtoes -10.978
lfemur -37.4751 13.9165 -11.9176
ltibia 74.1098
lfoot 170.641 -7.43546
ltoes -11.946
175
root -12.9102 15.3168 -0.186883 -43.8889 81.3333 -55.8185
lowerback 22.1088 2.41656 5.12445
upperback 5.27299 4.99934 4.03152
thorax -6.48746 2.52262 0.0867307
lowerneck -25.4096 4.24257 6.82695
upperneck 10.3293 4.94049 -8.52104
head 7.66241 1.81946 -3.28368
rclavicle 4.01545e-014 2.78299e-014
rhumerus -23.6173 18.7225 -88.4253
rradius 91.792
rwrist -15.671
rhand -27.8054 -22.335
rfingers 7.12502
rthumb -1.198 -52.3113
lclavicle 4.01545e-014 2.78299e-014
lhumerus -73.3453 -17.1964 101.93
lradius 84.1701
lwrist 24.7597
lhand -35.5548 -29.1628
lfingers 7.12502
lthumb -8.68016 0.638694
rfemur -8.5899 6.26456 32.9127
rtibia 43.6736
rfoot -37.523 -8.01347
rtoes -11.4033
lfemur -40.3692 14.4012 -11.9061
ltibia 73.5096
lfoot 170.389 -6.70875
ltoes -11.5591
176
root -12.6045 15.3595 -0.185643 -42.7065 81.0357 -54.8162
lowerback 21.8362 2.78097 5.28794
upperback 5.04238 5.46928 3.89074
thorax -6.55428 2.7331 -0.270771
lowerneck -25.934 3.89555 6.69141
upperneck 10.9937 4.49532 -8.36578
head 7.92448 1.59562 -3.2777
rclavicle 4.53229e-014 2.70347e-014
rhumerus -22.2559 17.8303 -88.6749
rradius 93.5231
rwrist -14.763
rhand -27.473 -20.9418
rfingers 7.12502
rthumb -0.876899 -50.9197
lclavicle 4.53229e-014 2.70347e-014
lhumerus -76.4758 -18.5581 102.409
lradius 85.3034
lwrist 25.0678
lhand -35.2837 -29.695
lfingers 7.12502
lthumb -8.41855 0.117234
rfemur -6.38437 6.92281 33.0877
rtibia 41.4525
rfoot -36.825 -7.99929
rtoes -12.0427
lfemur -43.5181 14.9897 -11.9496
ltibia 73.2031
lfoot 170.368 -6.21114
ltoes -15.9546
177
root -12.2758 15.4188 -0.196803 -39.8591 80.6328 -52.0613
lowerback 21.3854 3.29413 5.33537
upperback 4.99164 6.08654 3.74218
thorax -6.33039 3.03055 -0.586278
lowerneck -26.5655 3.49891 6.3083
upperneck 11.5526 4.03824 -8.08659
head 8.16136 1.36969 -3.19208
rclavicle -9.54166e-015 2.62396e-014
rhumerus -20.9288 17.2514 -88.7466
rradius 95.2097
rwrist -14.5254
rhand -28.2368 -20.4079
rfingers 7.12502
rthumb -1.61457 -50.3815
lclavicle -9.54166e-015 2.62396e-014
lhumerus -79.3578 -20.174 103.164
lradius 86.4463
lwrist 25.1452
lhand -35.0549 -29.7953
lfingers 7.12502
lthumb -8.19771 0.0256312
rfemur -4.03485 7.69981 33.0113
rtibia 39.1551
rfoot -35.7464 -8.01219
rtoes -13.537
lfemur -46.1187 15.7231 -12.1843
ltibia 73.6233
lfoot 170.387 -5.92028
ltoes -18.7954
178
root -11.9258 15.4925 -0.219172 -37.0953 80.4346 -49.3702
lowerback 21.1793 3.80565 5.24756
upperback 4.7787 6.70066 3.62104
thorax -6.42474 3.31381 -0.81455
lowerneck -27.4066 3.10806 5.81651
upperneck 12.4762 3.63333 -7.77486
head 8.56282 1.1591 -3.07653
rclavicle -3.26007e-014 -5.00937e-014
rhumerus -20.0778 16.9625 -88.6199
rradius 96.9209
rwrist -14.7899
rhand -29.456 -20.4565
rfingers 7.12502
rthumb -2.79206 -50.4179
lclavicle -3.26007e-014 -5.00937e-014
lhumerus -82.3005 -21.8226 104.199
lradius 87.4292
lwrist 25.189
lhand -34.8272 -29.6637
lfingers 7.12502
lthumb -7.97798 0.165715
rfemur -1.54429 8.27177 32.6069
rtibia 36.6472
rfoot -34.3549 -7.57846
rtoes -14.074
lfemur -48.2821 16.0506 -12.4936
ltibia 74.6474
lfoot 170.059 -5.54946
ltoes -17.3945
179
root -11.5598 15.5778 -0.242359 -34.7172 80.2542 -47.1241
lowerback 20.4748 4.27109 5.17651
upperback 4.65609 7.22385 3.54517
thorax -6.16444 3.56975 -0.930468
lowerneck -27.544 2.71408 5.39046
upperneck 12.986 3.25289 -7.64852
head 8.72382 0.962519 -3.02844
rclavicle -3.06128e-014 -5.64548e-014
rhumerus -19.5175 17.0344 -88.2801
rradius 98.7946
rwrist -15.2317
rhand -30.5216 -20.9827
rfingers 7.12502
rthumb -3.82118 -50.9282
lclavicle -3.06128e-014 -5.64548e-014
lhumerus -85.1902 -22.9763 105.295
lradius 88.3662
lwrist 24.9533
lhand -34.5974 -30.0929
lfingers 7.12502
lthumb -7.75621 -0.255182
rfemur 0.918264 8.67012 32.0724
rtibia 34.0414
rfoot -32.694 -6.47288
rtoes -13.2063
lfemur -50.1689 16.2855 -12.7372
ltibia 76.2081
lfoot 169.864 -5.07814
ltoes -15.5
180
root -11.1897 15.6726 -0.264953 -32.6142 80.053 -45.1945
lowerback 19.9032 4.7448 5.14791
upperback 4.46416 7.77866 3.43604
thorax -6.03508 3.83416 -1.1179
lowerneck -27.9008 2.3031 4.96411
upperneck 13.667 2.84257 -7.48153
head 8.97959 0.750396 -2.97507
rclavicle -2.78299e-014 1.11319e-014
rhumerus -19.0453 17.2215 -87.8414
rradius 100.538
rwrist -15.7137
rhand -31.5505 -21.7723
rfingers 7.12502
rthumb -4.81475 -51.6976
lclavicle -2.78299e-014 1.11319e-014
lhumerus -88.1247 -24.0701 106.396
lradius 89.5012
lwrist 24.7674
lhand -34.5244 -30.6685
lfingers 7.12502
lthumb -7.68574 -0.828211
rfemur 3.15795 8.89786 31.4213
rtibia 31.647
rfoot -30.6946 -4.97698
rtoes -11.8038
lfemur -51.8836 16.5213 -13.0028
ltibia 78.1011
lfoot 169.78 -4.82085
ltoes -15.9542
181
root -10.8139 15.7737 -0.290719 -30.5576 80.2181 -43.2434
lowerback 19.5397 5.11855 5.01468
upperback 4.20785 8.19232 3.22136
thorax -6.08678 4.02255 -1.34493
lowerneck -28.4226 1.87296 4.45953
upperneck 14.4875 2.38045 -7.05052
head 9.30605 0.536353 -2.8286
rclavicle -1.51076e-014 6.36111e-015
rhumerus -18.5817 17.3985 -87.3365
rradius 101.937
rwrist -16.3214
rhand -32.3484 -21.8232
rfingers 7.12502
rthumb -5.58513 -51.7296
lclavicle -1.51076e-014 6.36111e-015
lhumerus -91.0385 -25.0388 107.359
lradius 90.7202
lwrist 24.623
lhand -34.3934 -31.0443
lfingers 7.12502
lthumb -7.55926 -1.19937
rfemur 5.33395 8.66347 30.356
rtibia 29.2969
rfoot -28.0059 -3.79107
rtoes -12.1684
lfemur -53.2642 16.3001 -13.5076
ltibia 81.3408
lfoot 164.646 -30.0664
ltoes -16.0531
182
root -10.4152 15.8888 -0.332854 -28.1917 80.8369 -40.5127
lowerback 19.5509 5.29986 4.86797
upperback 4.06324 8.36748 2.87553
thorax -6.20679 4.09544 -1.6788
lowerneck -28.7416 1.45836 4.03632
upperneck 15.1351 1.89635 -6.58345
head 9.54474 0.328772 -2.68326
rclavicle -8.50798e-014 -5.1684e-014
rhumerus -18.3056 17.6272 -86.862
rradius 103.337
rwrist -17.2799
rhand -33.1059 -21.9159
rfingers 7.12502
rthumb -6.31641 -51.8018
lclavicle -8.50798e-014 -5.1684e-014
lhumerus -93.8072 -25.8458 108.212
lradius 91.8655
lwrist 24.5097
lhand -34.2142 -31.3434
lfingers 7.12502
lthumb -7.38631 -1.49232
rfemur 8.00648 7.64308 28.5882
rtibia 26.7295
rfoot -24.6218 -2.58485
rtoes -14.7818
lfemur -53.5798 15.4753 -14.3241
ltibia 85.8666
lfoot 155.502 -54.9449
ltoes -16.4813
183
root -10.0046 16.0114 -0.379473 -27.831 81.7917 -39.6353
lowerback 19.5967 5.23235 5.02564
upperback 3.99983 8.28712 2.5619
thorax -6.23211 4.04792 -2.08442
lowerneck -28.8177 1.07815 3.69641
upperneck 15.6116 1.44504 -6.211
head 9.69292 0.137378 -2.57597
rclavicle 4.49253e-014 -1.19271e-014
rhumerus -18.0341 18.1535 -86.3061
rradius 104.795
rwrist -18.6497
rhand -34.1085 -22.7435
rfingers 7.12502
rthumb -7.28433 -52.5981
lclavicle 4.49253e-014 -1.19271e-014
lhumerus -96.2424 -26.4719 108.941
lradius 92.9202
lwrist 24.6283
lhand -34.0514 -31.6876
lfingers 7.12502
lthumb -7.22919 -1.83104
rfemur 10.7454 6.25115 26.8601
rtibia 24.3632
rfoot -20.8111 -1.20816
rtoes -15.3647
lfemur -53.4435 14.1813 -15.0048
ltibia 89.2268
lfoot 118.681 -77.024
ltoes -17.1326
